<?xml version="1.0" encoding="UTF-8" standalone="no"?>
<svg id="svg4178" xmlns:rdf="http://www.w3.org/1999/02/22-rdf-syntax-ns#" xmlns="http://www.w3.org/2000/svg" height="522" viewBox="0 0 588 522" width="588" version="1.1" xmlns:cc="http://creativecommons.org/ns#" xmlns:dc="http://purl.org/dc/elements/1.1/">
<path id="path4188" d="m60 520.79c-14.705-2.55-16.127-2.98-19.048-5.84-1.624-1.58-2.952-3.73-2.952-4.76 0-1.68-0.494-1.79-4.75-1.09-21.457 3.53-33.382-3.97-27.75-17.45 2.3637-5.65 1.9001-9.36-1.75-13.97-4.2979-5.44-3.864-19.58 1.3-42.37 1.191-5.26 1.1428-18.63-0.1002-27.81-0.5212-3.85-1.442-13.75-2.0464-22l-1.0988-15 3.5765-5.9059c1.967-3.2482 4.4631-6.7319 5.5467-7.7415 1.0837-1.0096 2.7174-3.527 3.6304-5.5941 0.91308-2.0672 3.5866-7.859 5.9412-12.871 2.3546-5.0117 4.5912-10.524 4.9703-12.25 0.37905-1.7258 0.99093-3.1414 1.3597-3.1456 3.1655-0.0368 8.1684-21.96 8.1814-35.852 0.006-6.4023 0.88246-19.393 1.9477-28.869 1.3246-11.782 1.9473-24.269 1.9698-39.5 0.01814-12.249 0.48968-25.831 1.0479-30.18 1.0885-8.4828-0.3229-20.595-2.3991-20.588-0.59243 0.002-2.576 0.91754-4.4079 2.0344-14.993 9.15-18.816 26.08-11.056 48.97 2.7618 8.1453 3.2612 21.085 1.2852 33.303-1.3291 8.2178-1.2935 9.4591 0.48934 17.03 5.0386 21.399 3.2442 33.881-5.4684 38.04-2.1555 1.029-5.1223 2.4502-6.5928 3.1582-3.7252 1.7937-4.0167 0.99027-1.778-4.8998 2.4199-6.3669 2.7112-16.138 0.45527-15.272-1.0223 0.39231-2.1311-0.66998-3.5-3.3532-2.0831-4.09-2.7453-12.01-1.003-12.01 0.55 0 1 1.7707 1 3.9349 0 4.2899 1.4633 9.0651 2.7779 9.0651 0.45509 0 0.46589-2.5875 0.023995-5.75-1.9553-13.99-1.9735-14.79-0.439-19.21 2.0292-5.8457 1.3354-6.3281-1.3973-0.9716-1.5223 2.984-2.0077 5.2855-1.6195 7.6781 0.47129 2.9042 0.33689 3.2363-0.89583 2.2132-1.7112-1.42-1.9133-7.23-0.3529-10.14 0.8071-1.51 0.7752-3.2-0.1202-6.4-1.1081-3.96-0.9819-4.94 1.4026-10.9 3.0937-7.72 3.3902-10.75 0.9616-9.82-1.4223 0.55-1.5556 0.15-0.9355-2.78 0.3977-1.88 0.8599-4.77 1.0272-6.42s0.1084-1.99-0.1309-0.75c-1.8733 9.69-5.8408-5.41-5.4515-20.75 0.6685-26.33 7.7095-40.32 26.149-51.96 3.575-2.2553 7.7175-4.8721 9.2055-5.8151 1.488-0.94307 3.063-2.4611 3.5-3.3734 1.1944-2.4935 15.861-14.595 20.623-17.017 2.2941-1.1664 6.8345-3.97 10.09-6.23 20.409-14.16 27.478-18.84 30.581-20.231 3.7095-1.6647 24.003-5.4716 25.216-4.7303 0.39368 0.24059 3.2396-0.29624 6.3242-1.193 3.0846-0.89672 5.8486-1.3901 6.1423-1.0965 1.19 1.19-7.004 3.5249-13.152 3.7478-12.924 0.46853-30.765 6.7614-32.561 11.485-0.44868 1.1801-1.5889 2.4423-2.5338 2.8049-1.4443 0.55422-1.5167 0.41661-0.45416-0.86362 0.851-1.02 0.901-1.52 0.153-1.52-1.2055 0-1.4345 0.17052-11.31 8.4218-3.6719 3.068-7.1076 5.5782-7.635 5.5782-0.52734 0-1.6959 1.125-2.5969 2.5-1.133 1.7291-2.5454 2.5-4.5805 2.5-1.8558 0-3.9898 1.0156-5.7783 2.75-1.5597 1.5125-4.6127 3.9737-6.7845 5.4692-4.0732 2.805-7.031 6.5318-6.0012 7.5615 0.32228 0.32228 1.1185 0.0535 1.7693-0.59738 1.9734-1.9734 3.2191-1.3223 1.373 0.71764-0.9462 1.0455-3.1971 2.178-5.002 2.5166-2.1514 0.4036-3.665 1.457-4.3946 3.0583-0.61212 1.3435-2.913 3.361-5.1131 4.4834-4.108 2.09-6.759 2.77-4.081 1.04 0.87724-0.56691 1.0112-0.97573 0.32258-0.98469-0.64758-0.008-2.1164 1.1784-3.264 2.6374s-2.3764 2.3629-2.7306 2.0087c-0.9166-0.9166-3.4237 1.3749-2.7308 2.4959 0.73474 1.1888-1.2778 4.1789-6.6249 9.8427-3.2871 3.4818-3.8451 3.8212-2.4661 1.5l1.7822-3-2.4521 2.2438c-5.3446 4.89-9.8011 27.05-5.885 29.26 1.2402 0.7 1.2998 1.13 0.299 2.14-0.6875 0.69-1.25 2.38-1.25 3.76 0 1.9444 0.26667 2.2333 1.2 1.3 2.338-2.338 2.5849-1.1395 0.75637 3.6727-1.344 3.5372-1.6123 5.6613-0.97868 7.75 0.84117 2.773 0.89786 2.7957 1.5642 0.62729 1.4173-4.6124 2.6522-2.2254 2.0693 4-0.32186 3.4375-0.31137 5.575 0.02332 4.75s1.2598-2.9196 2.0557-4.6547c1.1367-2.4779 1.2159-3.9796 0.36884-7-2.9041-10.356-2.9873-28.317-0.14691-31.739 0.58878-0.70943 0.779-1.5814 0.42271-1.9377-1.647-1.65 5.665-13.67 8.314-13.67 0.70855 0 1.0569-0.6029 0.77416-1.3398-0.64926-1.6919 1.3393-3.3595 4.5769-3.8381 1.3977-0.20661 2.3788-0.94325 2.2251-1.6707-0.1843-0.87213 0.61116-1.194 2.4127-0.97625 1.6379 0.19796 2.8701-0.21776 3.1547-1.0644 0.28369-0.84392 0.02355-1.1151-0.66275-0.69098-0.622 0.38-1.13 0.2-1.13-0.41 0-0.61107 1.373-1.5897 3.051-2.1746 1.6781-0.58498 2.799-1.3157 2.4909-1.6238-0.661-0.66 3.414-5.21 4.667-5.21 0.47348 0 0.32956 1.0125-0.31982 2.25-1.123 2.14-1.088 2.1714 0.71482 0.6416 2.8571-2.4244 8.5672-4.1199 9.7824-2.9047 0.685 0.68 0.652 1.01-0.099 1.01-1.9116 0-7.3038 8.2653-8.8072 13.5-2.4216 8.4318 1.1438 25.545 5.3059 25.468 1.55-0.0288 1.5623-0.14889 0.12816-1.25-2.042-1.57-4.266-5.72-3.064-5.72 0.5061 0 1.7032 1.2375 2.6602 2.75 0.95701 1.5125 2.6963 3.5794 3.865 4.5931 1.6784 1.4558 1.7572 1.725 0.37498 1.2814-2.6264-0.84298-2.1076 0.94279 1 3.4422l2.75 2.2118-2.6887-0.64288c-3.7456-0.89559-4.3457 0.79891-1.1682 3.2984 3.1447 2.4736 2.4339 3.8778-1.1389 2.25-3.0799-1.4033-3.1929-0.54587-0.32991 2.5017 1.1959 1.273 1.6827 2.3144 1.0818 2.3144-0.60089 0-1.8043 0.27314-2.6743 0.60699-1.1659 0.44738-1.5834-0.0128-1.5879-1.75-0.0034-1.2964-0.68387-3.6565-1.5122-5.2448-0.82832-1.5883-1.4061-3.3883-1.284-4 0.306-1.54-2.047-5.62-3.232-5.62-1.281 0-1.248 11.71 0.035 12.5 0.55 0.33992 1 1.293 1 2.118s-0.45 1.2219-1 0.88197c-0.56716-0.35052-1 0.48962-1 1.941 0 1.4075 0.45 2.559 1 2.559s0.96837 1.4625 0.92972 3.25c-0.0589 2.7235-0.20951 2.926-0.92972 1.25-0.82005-1.9084-0.86265-1.8969-0.92972 0.25-0.04263 1.3646 0.52 2.25 1.4297 2.25 1 0 1.5 1 1.5 3 0 2.1846-0.47562 3.0042-1.75 3.0153-1.0728 0.009-1.3271 0.29963-0.65725 0.75 1.4336 0.96382 2.5904 7.0035 1.4736 7.6937-0.47746 0.29509-0.0036 3.8 1.053 7.7888 2.1616 8.1601 2.9166 18.555 1.3887 19.119-0.63795 0.23544-0.54912 1.1493 0.24194 2.4891 1.4957 2.5332 1.6561 5.5132 0.25 4.6442-1.3016-0.80446-1.2637 0.445 0.13526 4.4582 0.90515 2.5965 0.86043 3.4265-0.22064 4.0946-1.1059 0.68346-1.1308 1.4604-0.13526 4.2136 1.449 4.007 1.5304 5.0431 0.33845 4.3064-1.1171-0.69039-1.7911 21.597-1.0714 35.427 0.30051 5.775 0.15918 11.312-0.31406 12.304-0.47324 0.99217-0.94641 2.7922-1.0515 4-0.10508 1.2078-1.4742 5.346-3.0425 9.196s-3.2844 8.1015-3.8136 9.4478c-0.61008 1.5521-1.2211 2.0288-1.6699 1.3028-0.91404-1.4789-2.1798-0.56775-5.1896 3.7359-1.3411 1.9176-3.2132 4.2614-4.1603 5.2085-3.6108 3.6108-6.0317 9.8321-4.9281 12.664 0.56597 1.4524 1.3247 5.3407 1.686 8.6407 0.36133 3.3 1.8012 8.9071 3.1997 12.46 3.4283 8.7099 6.5159 22.608 7.3401 33.04 0.06518 0.825 0.50284 3.3331 0.97257 5.5736 0.46973 2.2404 1.321 9.0247 1.8916 15.076 0.57067 6.0514 1.7523 13.409 2.6258 16.351 0.8735 2.9414 1.725 8.8236 1.8922 13.072 0.23809 6.0487 0.77678 8.363 2.4841 10.672 2.9162 3.9444 3.7817 10.388 1.6347 12.17-4.1561 3.4493 1.4429 9.6696 10.396 11.55 3.575 0.75081 7.2926 1.6787 8.2613 2.0619 1.3646 0.53987 1.6165 0.3195 1.1185-0.97828-0.41656-1.0855 0.1074-2.2006 1.4887-3.168 3.2196-2.2551-4.0399-10.535-8.4191-9.603-1.9087 0.40643-2.6991-1.4668-0.90872-2.1538 1.3687-0.52523 1.3654-0.90356-0.03142-3.6048-1.7157-3.3177-2.7604-4.0163-1.8963-1.268 0.49803 1.5839 0.42382 1.5982-0.78186 0.15011-0.88357-1.0612-1.332-4.512-1.3316-10.248 0.000418-7.5696-0.21784-8.6487-1.7495-8.6501-0.9625-0.00086-1.8166-0.56407-1.8981-1.2516-0.08143-0.6875-0.23981-1.925-0.35194-2.75s-0.27051-2.1106-0.35194-2.857c-0.08434-0.77296-0.79364-1.1092-1.6481-0.78138-0.825 0.31658-1.5 0.17722-1.5-0.30968 0-0.48691 0.50971-1.0552 1.1327-1.2628 0.72838-0.24279 0.85404-1.2542 0.35204-2.8333-0.73674-2.3176-0.82255-2.3433-1.5254-0.45577-0.70075 1.882-0.78838 1.8928-1.4848 0.18278-0.41167-1.0108-0.25286-2.3045 0.35787-2.9152 0.79731-0.79731 0.62829-1.4468-0.61722-2.3719-1.5043-1.1172-1.5447-1.5525-0.32896-3.5394 0.99121-1.6199 1.0607-2.374 0.24377-2.6463-0.62836-0.20945-0.89386-0.78309-0.59-1.2747 0.30386-0.49166 0.03253-1.8654-0.60296-3.0529-0.63549-1.1874-1.2975-3.3342-1.4711-4.7707-0.1736-1.4364-0.56548-3.9617-0.87084-5.6117s-0.81043-7.95-1.1224-14c-0.68194-13.226-2.2175-21.155-3.7919-19.581-1.5763 1.5762-2.9871 1.3213-2.3192-0.41914 0.31658-0.825 0.09158-1.5-0.5-1.5s-0.81658-0.675-0.5-1.5c0.39114-1.0193-0.05328-1.5-1.3867-1.5-2.244 0-2.2528-3.1877-0.01462-5.2636 1.0599-0.98301 1.1885-0.98023 0.62742 0.0136-0.38815 0.6875-0.45919 1.25-0.15786 1.25 0.91756 0 8.2718-15.28 9.0243-18.75 0.389-1.79 1.12-3.25 1.626-3.25 0.507 0 0.921-0.82 0.921-1.81 0-2.8451 4.7004-11.864 7.0357-13.5 1.1612-0.81331 1.6852-1.742 1.1645-2.0638-2.3885-1.4762-10.86 9.7533-11.607 15.386-1.747 13.17-11.271 21.3-11.693 9.99l-0.13031-3.5-0.72938 3.761c-1.1284 5.8186-2.391 5.8603-1.736 0.0574 0.73777-6.5359 3.6662-12.242 7.6018-14.813 1.6795-1.0971 3.5672-3.2346 4.1949-4.75 0.628-1.51 1.44-2.75 1.805-2.75 0.36469 0 1.5264-1.4615 2.5816-3.2478s3.622-5.4984 5.7039-8.2492c2.2369-2.9555 3.5701-5.6794 3.2592-6.6591-0.701-2.2 1.517-10.84 2.784-10.84 1.0012 0 0.66094 2.9797-0.71368 6.25-0.40457 0.9625-0.34731 1.75 0.12726 1.75 0.47456 0 1.8946-2.3625 3.1555-5.25 1.261-2.8875 2.6949-5.9898 3.1865-6.8941 0.49158-0.90424 1.5718-3.2667 2.4004-5.25 1.887-4.5162 0.08108-4.8358-2.0113-0.35593-3.3376 7.146-4.7185 9.2345-5.1833 7.84-0.25502-0.76505 0.72088-3.6858 2.1687-6.4905s3.0932-6.986 3.6565-9.2918c0.63355-2.5934 2.5418-5.7719 5.0031-8.3336 2.1884-2.2777 4.2518-5.2286 4.5854-6.5576 0.334-1.33 1.183-2.42 1.887-2.42 0.70417 0 1.593-1.6666 1.9751-3.7035 0.38213-2.0369 1.5596-5.3987 2.6167-7.4707 1.4691-2.8796 1.5842-3.6376 0.48859-3.2172-0.7883 0.3025-2.0008 2.7643-2.6944 5.4707-0.694 2.71-1.593 4.92-1.999 4.92-0.40569 0-0.94342 0.7875-1.1949 1.75-0.41475 1.5871-0.46812 1.5781-0.57332-0.0967-0.08865-1.4114-1.1941-0.70416-4.6893 3-3.5389 3.7506-4.4647 4.3376-4.0933 2.5954 0.27868-1.3071 0.07294-1.9998-0.49052-1.6516-0.60753 0.37547-0.70695-0.83957-0.26581-3.2486 0.38759-2.1166 1.3163-4.2083 2.0638-4.6481 0.748-0.44 1.36-1.8 1.36-3.03 0-1.2254 0.9-2.9987 2-3.9405 1.1-0.94185 2-2.3437 2-3.1152 0-0.77154 0.675-1.6618 1.5-1.9784 0.825-0.31658 1.5-1.6596 1.5-2.9845s0.64401-2.9434 1.4311-3.5967c1.5937-1.3226 3.9101-10.696 3.0051-12.16-0.901-1.45 1.564-7.89 3.025-7.89 0.7182 0 1.5412-0.9 1.8288-2 1.0425-3.9867 2.4092-1.875 2.1033 3.25-0.17232 2.8875-0.07327 4.4625 0.22012 3.5 0.77393-2.539 2.0627-2.149 3.305 1 0.98208 2.4895 1.029 2.3711 0.49531-1.25-0.32424-2.2-1.2789-4.3901-2.1215-4.8668-1.1816-0.66861-1.2449-1.0442-0.27663-1.6427 0.82358-0.509 1.0132-1.7406 0.55127-3.581-0.55197-2.1992-0.90523-2.4924-1.6353-1.3573-0.80881 1.2574-1.0608 1.2506-1.916-0.0522-1.2229-1.8629-1.3305-8-0.14031-8 0.48125 0 1.2269 1.4625 1.657 3.25l0.78203 3.25 0.64469-4 0.64469-4 1.2028 4.1235c0.66152 2.2679 1.8306 6.9929 2.5979 10.5 1.1379 5.201 1.4136 5.7239 1.4955 2.8366 0.05522-1.947-0.57459-6.1314-1.3996-9.2988-2.7083-10.398-1.291-11.541 2.5758-2.0779l2.009 4.9166-0.54858-5c-0.30172-2.75-0.77778-6.35-1.0579-8-0.41659-2.4537-0.12804-2.1805 1.5845 1.5 1.8714 4.022 2.3392 6.8918 2.8528 17.5 0.12609 2.6048 0.28398 2.7615 1.1985 1.1893 0.5793-0.9959 0.75426-2.5709 0.3888-3.5-0.36546-0.92909-0.77629-3.948-0.91295-6.7088-0.46342-9.3616-3.05-14.138-7.3966-13.658-3.6665 0.4048-3.6789 0.39372-1.7062-1.5228 4.0652-3.9493 6.8601-2.1088 9.4349 6.213 1.6517 5.3383 1.8408 5.5681 2.4815 3.0153 0.44943-1.7907 0.20812-3.3379-0.68556-4.3957-1.288-1.52-4.718-9.82-4.718-11.41 0-1.5917 1.802-0.58162 2.2897 1.2834 0.28766 1.1 1.0676 2 1.7333 2 0.67442 0 0.99121-0.7748 0.71553-1.75-1.1735-4.151-1.172-4.7367 0.01146-4.5 1.5046 0.30092 1.5223 0.0963 0.27475-3.1849-0.63367-1.6667-0.63367-2.5651 0-2.5651 1.2824 0 1.2621-3.7047-0.02475-4.5-0.55-0.33992-0.98999-1.379-0.97776-2.309 0.01755-1.335 0.45822-1.1646 2.0931 0.80902 1.9511 2.3554 2.0308 1.8756 0.37363-2.25-1.1156-2.7774 1.4057-2.0752 2.693 0.75 0.6265 1.375 1.5244 2.5 1.9954 2.5 0.47098 0-0.27625-2.235-1.6605-4.9668-2.76-5.45-2.93-6.04-1.68-6.04 0.46339 0 1.6812 1.5572 2.7061 3.4605 1.025 1.9033 2.0226 3.3016 2.2169 3.1072 0.1943-0.19431-0.57347-2.0824-1.7062-4.1957-2.47-4.61-2.54-5.37-0.5-5.37 0.85746 0 1.2809-0.45 0.94098-1s-0.15273-1 0.41598-1c0.6269 0 0.78554-1.2424 0.40292-3.1555-0.41492-2.0746-0.27403-2.9348 0.41131-2.5112 1.1076 0.68451 2.2335-2.3514 2.2561-6.0833 0.008-1.2375 0.41357-2.25 0.90236-2.25s1.1896-1.6039 1.5574-3.5642c0.87758-4.6779 3.1281-3.9448 2.8338 0.92316-0.12105 2.0026 0.21645 3.641 0.75 3.641 0.53356 0 1.0056 0.7875 1.049 1.75s0.29749 1.2128 0.56461 0.55618c0.26711-0.65661 1.1316-0.94596 1.921-0.64301 2.1135 0.81104 1.8042-2.5763-0.31461-3.4454-0.9625-0.39478-1.8758-1.8428-2.0295-3.2178s-0.7162-2.65-1.25-2.8333c-1.69-0.58-1.05-2.17 0.88-2.17 1.016 0 2.3355 1.0125 2.9323 2.25 0.59682 1.2375 1.1156 1.6579 1.1528 0.93426 0.0372-0.72366-0.39815-2.1862-0.9675-3.25-0.57-1.06-0.74-1.93-0.37-1.93 1.1476 0 3.3301 3.4064 3.3636 5.25 0.0565 3.1114 1.9215 1.8551 2.5978-1.75 0.64366-3.431 2.434-4.9252 2.434-2.0314 0 0.89459 0.58629 1.2436 1.5 0.89301 1.1625-0.44609 1.5 0.23601 1.5 3.0314 0 1.9838 0.47656 3.607 1.059 3.607 0.58246 0 0.80684-0.40803 0.49862-0.90674s0.29512-0.68302 1.3408-0.40958c2.0201 0.52827 3.1318 3.9794 3.4841 10.816 0.15109 2.9315 0.60774 3.9339 1.7095 3.7526 0.82684-0.13606 3.9569 2.0742 6.9557 4.9118 5.9912 5.6691 7.7712 6.4655 9.4177 4.2138 0.88985-1.2169 1.4347-0.55728 2.8958 3.5057 0.98981 2.7526 2.4385 5.5348 3.2193 6.1828 1.7742 1.4724 1.7683 1.173-0.0804-4.0667-0.825-2.3383-1.4797-5.6574-1.4549-7.3757l0.0451-3.1243 1.3737 3c0.97205 2.1229 1.3974 2.4603 1.4549 1.1539 0.11378-2.5862-2.9943-13.032-4.0867-13.735-0.4966-0.3195-1.1324-2.3445-1.4129-4.5l-0.51004-3.9191 1.4642 3c1.3624 2.7913 1.4699 2.8376 1.5455 0.66667 0.16952-4.8701 2.5898-1.409 3.0852 4.4119 0.66504 7.8145 1.1934 8.5501 5.0875 7.083 2.9084-1.0958 3.047-1.3856 2.4499-5.124-0.84841-5.3117 0.0322-4.1668 2.3361 3.037 1.338 4.1836 2.3479 5.844 3.4357 5.6484 0.93601-0.16832 1.6675 0.58588 1.8638 1.9217 0.58529 3.983 2.8172 3.3566 2.8908-0.81129 0.0797-4.5115 1.3834-2.3943 2.4118 3.9167 0.3361 2.0625 1.071 3.75 1.6332 3.75 0.58603 0 0.73524-0.90373 0.34975-2.1183-0.48091-1.5152-0.29442-1.9924 0.65503-1.6759 0.73004 0.24334 1.6324 1.5341 2.0053 2.8683 0.66745 2.3885 0.67944 2.3835 0.77758-0.32414 0.14769-4.0746 1.8442-3.3348 3.2706 1.4262 1.1688 3.9012 4.664 8.8238 6.2652 8.8238 0.38872 0-0.00039-0.70714-0.86467-1.5714-1.6704-1.6704-2.0262-3.6405-0.86676-4.7999 0.38757-0.38756 1.4937 0.77494 2.4581 2.5833l1.7534 3.288 0.0419-2.75c0.0592-3.8813 2.0097-3.4368 2.1942 0.5 0.241 5.1423 0.32231 5.5611 1.2482 6.4294 0.49901 0.46795 0.60149-3.4767 0.23847-9.1794l-0.63657-10 2.383 6.695c1.3106 3.6823 3.3539 7.9294 4.5407 9.4381l2.1577 2.7431-0.6942-4.3413c-0.77572-4.8511 1.0037-5.0736 2.0615-0.25775 0.80875 3.6822 7.7047 11.275 8.3686 9.2137 0.51204-1.5896 2.1298-2.9504 3.5373-2.9756 0.47134-0.008 0.61226 0.62245 0.31314 1.4019-0.29911 0.77948 0.10274 1.6654 0.89301 1.9686 0.89855 0.3448 1.4534-0.0925 1.4811-1.1672 0.0254-0.9893 0.8843-0.12725 2.0239 2.0314 1.0888 2.0625 2.4189 3.75 2.9558 3.75 1.3569 0 1.1696-1.1601-0.55569-3.4411-0.80751-1.0676-1.4492-3.0926-1.4259-4.5 0.0302-1.8318 1.0647-0.35685 3.6408 5.1911 1.9792 4.2625 4.1836 7.75 4.8987 7.75 1.7523 0 2.9321-2.0644 1.6371-2.8647-1.4324-0.88529-4.501-8.7888-3.9981-10.298 0.22571-0.67712 1.4159 0.84598 2.6448 3.3847 2.4742 5.111 5.1344 8.0184 5.1344 5.6115 0-0.77605-0.9-3.1763-2-5.3339-2.3005-4.5123-2.4904-5.3904-0.8-3.7 1.6504 1.6504 2.8 1.503 2.8-0.35902 0-0.85746 0.45122-1.2802 1.0027-0.93931 0.66297 0.40974 0.63688 1.3033-0.077 2.6372-1.1751 2.1957-0.60327 4.8612 1.0429 4.8612 0.56726 0 1.0314-0.77143 1.0314-1.7143 0-3.4783 3.1282 1.2513 3.7134 5.6145 0.32861 2.45 1.02 4.012 1.6733 3.78 1.0989-0.3903 1.098-1.2906-0.007-7.1801-0.30964-1.65-0.575-3.225-0.58968-3.5-0.22868-4.2812 2.9207-3.9369 4.7842 0.52305 0.80961 1.9377 2.3616 4.4127 3.449 5.5 1.0872 1.0873 1.9768 2.652 1.9768 3.477s0.34074 1.5 0.75721 1.5c0.41646 0 0.59615-2.025 0.3993-4.5-0.232-2.917-0.82938-4.5-1.6982-4.5-1.8146 0-2.5978-1.4728-1.8373-3.4548 0.55174-1.4378 0.80051-1.3883 2.06 0.40976 0.78783 1.1248 2.0273 2.0451 2.7544 2.0451 0.72709 0 1.8871 1.3644 2.5779 3.0321 0.69076 1.6676 1.4809 2.8071 1.7559 2.5321s-0.0774-1.894-0.78315-3.5978c-1.1054-2.6687-1.0548-3.3262 0.3654-4.7464 1.06-1.05 1.65-1.21 1.65-0.43 0 0.66-0.41 1.21-0.92 1.21-0.50576 0-0.2125 1.8 0.65169 4 1.8371 4.6769 3.7253 5.359 2.7679 1-0.42175-1.9202-0.26139-3 0.44554-3 0.60746 0 1.3763 1.3594 1.7086 3.0208 1.1623 5.8116 2.6446 4.5281 1.8822-1.6297-0.77971-6.2978 0.23342-6.5665 2.1088-0.55928l1.1451 3.6682 0.17514-3c0.21629-3.7049 1.8527-8.0493 1.9643-5.2148 0.0787 1.9994 2.9056 6.7148 4.0256 6.7148 0.3989 0 1.2978-2.5875 1.9975-5.75 1.7832-8.059 1.8784-8.2396 1.9779-3.75 0.0487 2.2-0.45816 8.4163-1.1264 13.814-1.015 8.1984-0.98934 9.9535 0.15572 10.661 0.79795 0.49316 1.3144 2.3468 1.2358 4.4359-0.16723 4.4484 1.2274 4.6049 3.4108 0.3826 1.5973-3.0888 1.5799-3.258-0.47432-4.622-2.2837-1.5163-2.7888-5.3148-1.2463-9.3719 0.48727-1.2816 1.1887-4.5623 1.5586-7.2904 1.1503-8.4822 1.8329-6.4676 1.3147 3.8802-0.58069 11.596 0.67858 10.681 2.2049-1.6019 0.58569-4.7133 1.7406-10.306 2.5665-12.429l1.5016-3.8591-0.65179 4.5c-0.35849 2.475-0.79864 7.7633-0.97812 11.752-0.17948 3.9885-0.82303 9.0964-1.4301 11.351-0.60708 2.2545-0.8492 4.3537-0.53805 4.6648 0.32 0.31 0.57-0.19 0.57-1.1 0-0.92 0.51-1.67 1.13-1.67 0.76265 0 0.90637 1.221 0.44142 3.75-0.37918 2.0625-1.0848 6.225-1.5681 9.25-1.2832 8.0324-2.1252 11-3.1207 11-0.48588 0-0.88342 1.1092-0.88342 2.4648 0 2.6022 2.5688 4.5968 4.8656 3.7782 0.75111-0.26772 1.7567 0.13059 2.2347 0.88513 1.1063 1.7464 1.16 4.1508 0.0777 3.4819-0.45208-0.2794-0.78958 1.7187-0.75 4.4403 0.0402 2.7666 0.53834 4.9486 1.1298 4.949 0.71587 0.00047 1.0391 7.7421 1 23.95-0.0526 21.795-0.76323 28.977-1.8356 18.551-0.22628-2.2-0.43133 4.1-0.45568 14-0.0243 9.9 0.37264 18.516 0.88218 19.148 1.6708 2.0699 0.5083 15.969-1.5234 18.214-2.5126 2.7764-1.7546 18.275 1.4983 30.638 2.5008 9.5046 2.6643 14.342 1.3013 38.5-0.76722 13.599-1.2623 45.127-0.67497 42.988 1.1673-4.2515 1.3152-4.2947 3.9242-1.1454 2.0185 2.4365 3.41 3.1576 6.0929 3.1576 3.3905 0 3.4391 0.0559 1.9532 2.25-0.83805 1.2375-2.2429 2.1875-3.122 2.1111-0.87903-0.0764-1.5982 0.26111-1.5982 0.75s0.675 0.88889 1.5 0.88889 1.5 0.39375 1.5 0.875 0.28125 2.2812 0.625 4c0.486 2.43 0.27858 3.125-0.93261 3.125-1.6379 0-2.3577 1.7432-2.5432 6.1587-0.13076 3.1131 3.6833 4.9783 8.354 4.0854 2.266-0.43318 2.7063-0.23236 2.2272 1.016-0.47671 1.2423 0.44764 1.6828 4.5863 2.1858 12.647 1.537 18.683 1.7156 18.683 0.55282 0-0.64097 0.5625-0.9637 1.25-0.71719 1.9778 0.70919 4.5977-1.0864 6.2516-4.2847 1.6201-3.1329-3.0076-6.9968-8.38-6.9968-3.1582 0-5.1214-1.0945-5.1246-2.857-0.002-1.1959-0.95461-1.6634-3.5-1.718-2.2743-0.0488-3.4971 0.38826-3.4971 1.25 0 2.2238-5.1102 1.6197-5.7102-0.67497-0.28766-1.1-1.3547-2-2.3712-2-2.9249 0-4.1794-3.4659-3.19-8.8136 1.1666-6.3057 0.91635-12.654-0.73665-18.686l-1.37-5-1.1479 5c-1.2291 5.3536-1.2517 5.3302-3.0239-3.1229-0.52184-2.4891-0.62023-2.5273-1.9286-0.75-2.229 3.028-2.9171-0.42012-2.0886-10.465 0.39294-4.7641 0.89866-11.587 1.1238-15.162 0.22516-3.575 0.6681-7.5823 0.98432-8.9051 0.33758-1.4122 0.0615-2.7225-0.66876-3.1738-0.97857-0.60479-0.95135-1.1209 0.12771-2.4211 1.0895-1.3127 1.1127-1.8123 0.11299-2.4302-0.856-0.52903-1.0416-1.9335-0.58037-4.392 0.56273-2.9996 0.14454-4.4813-2.4592-8.7129-2.5194-4.0946-3.2135-6.4412-3.5246-11.916-0.21306-3.7496-0.92544-7.679-1.5831-8.732-0.94877-1.5192-0.86678-2.9369 0.39707-6.8657 0.87601-2.7231 1.3968-3.6011 1.1573-1.9511-0.38472 2.6505 1.4489 10.39 3.4213 14.44 1.257 2.5816 3.0585 2.3527 3.0585-0.38853 0-1.4381 0.67242-2.8728 1.4943-3.1881 0.82184-0.31537 1.2453-0.97625 0.94098-1.4686-0.3043-0.49237-0.0353-0.89522 0.59775-0.89522 0.76867 0 1.0534-1.9101 0.85704-5.75-0.21257-4.1574 0.22657-6.7194 1.5856-9.25 1.9725-3.6732 2.7637-9 1.3367-9-0.45973 0-0.60117-1.6875-0.31432-3.75 0.28686-2.0625 0.68864-6.45 0.89286-9.75 0.20421-3.3 0.71806-6.8398 1.1419-7.8663 0.68328-1.6549 0.52679-1.7359-1.381-0.71482-1.7322 0.92702-2.1516 0.87496-2.1516-0.26703 0-0.78021 0.9-1.6539 2-1.9416 1.1639-0.30438 2-1.364 2-2.5348 0-1.1065 0.27314-2.7236 0.60699-3.5936 0.34578-0.90111 0.0903-1.5818-0.59362-1.5818-0.66034 0-1.436 0.9-1.7236 2-0.56669 2.167-3.3065 2.7967-3.2634 0.75 0.0145-0.6875 1.7826-4.5588 3.9291-8.603 2.1465-4.0441 3.6628-7.9783 3.3695-8.7426-0.56147-1.4632 4.4992-16.401 5.559-16.409 0.33883-0.002 0.69868-1.6079 0.79967-3.5676s0.57972-4.0952 1.0638-4.7455c0.48413-0.65035 0.99455-2.9824 1.1343-5.1824 0.13972-2.2 0.92234-4.517 1.7392-5.149 1.0451-0.8086 1.1335-1.2662 0.29818-1.5446-0.82358-0.27453-0.6844-0.89817 0.45467-2.0372 1.6687-1.6687 0.57576-3.474-1.3737-2.2691-0.55 0.33992-1 0.10239-1-0.52785 0-0.63023 1.3204-1.6443 2.9342-2.2534 2.606-0.98367 5.0717-4.7187 3.115-4.7187-0.41994 0-0.76353-2.5661-0.76353-5.7024 0-3.3645-0.46528-5.8575-1.1349-6.0807-0.80893-0.26964-0.83668-0.93547-0.0966-2.3183 0.57104-1.067 0.76589-2.3807 0.433-2.9193-0.3329-0.53863-0.16-0.97933 0.3842-0.97933 0.54421 0 1.144 1.0125 1.3328 2.25 0.18881 1.2375 0.89511 2.1375 1.5696 2 1.4712-0.29993 1.6398 1.3764 0.22626 2.25-0.55 0.33992-0.96447 1.829-0.92105 3.309 0.0465 1.5864 0.31219 2.0753 0.64718 1.191 0.31253-0.825 1.7834-4.2 3.2687-7.5 3.2033-7.1172 4.0827-11.27 2.9648-14-0.45047-1.1-0.85066-1.4109-0.88931-0.69098-0.0387 0.71996-0.48186 1.0546-0.98488 0.74377-0.50302-0.31089-1.1218 0.00005-1.375 0.69098-0.35802 0.97687-0.76619 0.94563-1.8354-0.14047-0.75625-0.76819-0.85965-1.1083-0.22978-0.75575 0.62986 0.35253 1.3639 0.0711 1.6311-0.62535 0.65033-1.6947 5.8932-2.057 6.8966-0.47658 0.54938 0.8653 0.80308 0.63402 0.81789-0.74562 0.0118-1.1 0.6747-3.2523 1.4731-4.7829 0.79839-1.5306 1.0206-2.5166 0.49384-2.191-0.52 0.32-0.95 0.11-0.95-0.47s0.4-1.06 0.89-1.06c1.9921 0 4.2372-6.8297 2.9321-8.9195-1.8272-2.9258-0.0691-3.8735 1.9548-1.0538 0.94985 1.3233 2.0329 3.0962 2.4067 3.9397 0.37385 0.8435 0.70967-0.94136 0.74627-3.9664 0.0467-3.8568-0.53961-6.4942-1.9623-8.8277-2.0234-3.3189-2.0235-3.326-0.0226-2.691 1.9391 0.61545 1.9552 0.51466 0.48124-3.013-0.83873-2.0074-1.0519-3.3574-0.47364-3 1.8558 1.1469 1.1225-2.1081-1.116-4.9539l-2.1674-2.7554 2.1674 0.6879c1.29 0.42 2.16 0.27 2.16-0.37 0-0.59-0.4-1.07-0.88-1.07-0.48585 0-1.1611-0.7875-1.5006-1.75s-0.90773-2.425-1.2627-3.25c-0.44846-1.0422 0.01-0.91858 1.5006 0.40499 2.5224 2.239 2.7061 1.5787 0.66095-2.3763-1.0509-2.0322-1.1522-2.9829-0.34663-3.2515 0.77872-0.25957 0.62169-1.1683-0.49693-2.8755l-1.6354-2.496 3.4821 0.40651c2.22 0.26 3.48-0.01 3.48-0.76 0-0.64263-0.45-0.89031-1-0.55039-0.56716 0.35052-1-0.48962-1-1.941 0-1.41-0.51-2.56-1.12-2.56-0.78453 0-0.81016-0.37633-0.0851-1.25 1.3891-1.6739-1.1467-7.75-3.2344-7.75-1.3381 0-1.3203 0.25487 0.1367 1.9565 2.3161 2.705 2.5653 5.2409 0.47526 4.8351-0.91851-0.17835-1.6819-0.99191-1.6964-1.8079-0.0145-0.816-0.33033-1.968-0.70176-2.5601-0.97853-1.5597 0.26639-5.518 1.4964-4.7578 1.406 0.86894-0.0175-1.5567-2.5913-4.4158-1.12-1.24-2.63-2.25-3.35-2.25-0.73 0-1.33-0.44-1.33-0.97 0-1.2112 2.9275-0.21917 5.2561 1.7812 0.96587 0.82969 2.0778 1.1868 2.471 0.79362 0.3932-0.3932 0.21081-1.0279-0.40532-1.4105-0.61612-0.3826-1.2781-1.8206-1.471-3.1956-0.30537-2.1761-1.1041-2.6487-6.1654-3.6479-6.73-1.33-8.41-2.35-3.86-2.35 1.75 0 3.17-0.42 3.17-0.93 0-0.50967 0.7875-1.1435 1.75-1.4085 0.9625-0.26504-0.275-0.29477-2.75-0.0661-2.475 0.2287-3.9375 0.15004-3.25-0.17478 2.118-1.0006 1.384-2.4239-1.25-2.4239-1.5556 0-2.5-0.56667-2.5-1.5 0-0.87011-0.94484-1.5266-2.25-1.5634-2.202-0.062-2.1975-0.0844 0.21338-1.0467 3.4384-1.3726 3.4395-1.2471-0.0435-4.9757-1.7264-1.8482-3.5285-4.3849-4.0047-5.6372-0.48-1.25-1.55-2.27-2.37-2.27-0.82449 0-2.1658-1.2893-2.9807-2.8652-1.1356-2.196-2.426-3.0162-5.5257-3.5118-2.58-0.41-4.04-1.17-4.04-2.11 0-0.80437-1.3647-2.1682-3.0327-3.0308-1.668-0.86255-2.7657-2.0003-2.4393-2.5284 0.64973-1.0513 4.4631 0.58254 5.7067 2.445 0.45176 0.67659 0.74058 0.41906 0.75-0.66875 0.0122-1.416 0.56413-1.6418 2.7653-1.1313 2.658 0.61646 2.6831 0.58472 0.75-0.94915-1.1-0.87281-3.2436-1.6012-4.7636-1.6187-2.4687-0.0284-6.382-1.5883-7.7364-3.0839-0.48926-0.54025-6.0247-3.1598-9-4.2591-1.1253-0.41576-0.93791-0.72507 0.75-1.2381 1.2375-0.37616 2.25-1.1339 2.25-1.6839 0-0.54997 1.125-0.78489 2.5-0.52204 1.6248 0.31061 2.5 0.0249 2.5-0.81603 0-1.5715-3.1398-2.696-5.258-1.8832-0.84685 0.32497-1.8287 0.12322-2.182-0.44834-0.35324-0.57155-2.911-1.3401-5.6839-1.708-4.9295-0.65392-5.1018-2.339-0.24274-2.3739 3.2585-0.02339 3.834-3.8453 0.78799-5.2331-2.43-1.105-3.29-2.779-1.42-2.779 2.5644 0 0.52805-1.6498-3.7485-3.0369-5.0634-1.6423-6.636-4.2295-3.8224-6.2886 1.4461-1.0584 1.4054-1.2989-0.41213-2.433-1.11-0.693-2.02-0.858-2.02-0.367 0 1.2072-4.9105 2.0788-5.5829 0.99094-0.3-0.476-0.06-0.866 0.52-0.866 2.1059 0 0.99916-3.0723-1.441-4-1.375-0.52277-2.5-1.3748-2.5-1.8935 0-0.51863-0.2751-1.6599-0.61134-2.5361-0.44745-1.166-0.17937-1.4274 1-0.9748 2.4324 0.9334 1.9327-1.3533-0.59086-2.7039-1.6406-0.87805-2.2994-0.88702-2.5833-0.03518-0.21 0.628-0.79 1.143-1.29 1.143-1.2656 0-1.1543-3.3624 0.15465-4.6713 1.67-1.665-3.68-5.329-7.77-5.329-1.887 0-4.3333-0.48296-5.4363-1.0732-3.2757-1.7531-13.159-4.0537-13.784-3.2087-1.191 1.6091-14.194 0.82799-15.167-0.91117-0.50212-0.89722-2.6094-1.9179-4.6828-2.2682-2.0734-0.35031-4.4357-1.0579-5.2494-1.5725-2.3161-1.4645 4.4598-1.2051 12.02 0.46032 7.4492 1.6408 21.195 3.5898 25.25 3.5801 1.9491-0.0047 2.7545 0.50306 2.7653 1.7434 0.0131 1.4955 0.15626 1.5319 0.98469 0.25 0.64625-1 0.97448-1.0833 0.98469-0.25 0.009 0.71434 1.2807 1.25 2.9683 1.25 3.2 0 8.05 1.855 8.05 3.079 0 0.941 9.96 10.921 10.9 10.921 1.7991 0 21.039 19.898 22.399 23.165 1.1586 2.7832 2.6292 4.153 6.1123 5.6938 4.23 1.869 6.13 4.141 3.47 4.141-0.77551 0-0.73766 0.46364 0.12244 1.5 0.68469 0.825 0.90969 1.5 0.5 1.5s-0.21407 0.6396 0.43471 1.4213c0.97356 1.1731 0.77661 1.3348-1.1276 0.92578-2.244-0.48198-2.254-0.45244-0.36602 1.0787 1.0676 0.86582 2.4301 1.5742 3.0278 1.5742 0.59765 0 1.7837 0.7875 2.6356 1.75 1.796 2.029 11.585 10.886 15.039 13.607 1.2963 1.0212 3.7648 2.4669 5.4856 3.2127 1.7208 0.74583 3.3957 2.0517 3.7219 2.902 0.32627 0.85024 1.8434 2.0982 3.3713 2.7733 10.725 4.7383 28.639 17.126 33.912 23.449 6.2989 7.5538 6.6904 7.8314 12.906 9.1498 3.2781 0.6953 7.1071 1.6166 8.5089 2.0473 3.5017 1.0759 26.154 0.72588 27.975-0.43231 0.81176-0.51609 3.5009-1.6448 5.9759-2.5083 3.7959-1.3243 4.5516-2.03 4.8301-4.5103 0.18154-1.6172 1.1641-3.8403 2.1834-4.9403 2.7448-2.9621 3.552-5.7592 5.5183-19.122l1.7837-12.122-2.7254-8.7412c-1.85-5.9336-2.7839-11.274-2.9077-16.626-0.10028-4.3368-0.44759-7.8858-0.7718-7.8865-1.29-0.01-2.92-5.332-2.92-9.496 0-4.4705 1.9288-7.5414 2.086-3.321 0.0736 1.9776 0.21646 1.8784 0.9952-0.69098 1.0669-3.5202 0.54755-5.5-1.4428-5.5-2.9327 0-3.6045-7.7519-1.1756-13.565 0.94529-2.2624 1.1681-4.2851 0.62977-5.7179-1.1089-2.9515-0.60867-6.8271 1.4378-11.14 1.3556-2.8567 1.4662-4.1488 0.57439-6.7071-3.54-10.154 1.99-18.87 11.96-18.87 4.0321 0 4.961-0.39327 6.4949-2.75 2.5982-3.9919 4.1972-4.9962 11.44-7.1849 12.56-3.7954 17.346-3.7673 25.649 0.15097 1.4478 0.68314 6.5079 0.6893 15.5 0.018868 15.63-1.1645 27.55-0.0317 40.43 3.8417 1.69 0.5078 4.27 0.9233 5.73 0.9233 4.6288 0 10.275 2.94 13.052 6.7955 15.8 21.942 16.209 26.714 2.2045 25.685-2.7188-0.19977-5.6438 0.04681-6.5 0.54794-1.2915 0.75591-1.2008 0.91634 0.53268 0.94156 5.4158 0.07882 14.924 12.095 12.542 15.852-1.7528 2.7645-19.355 0.41629-25.751-3.4353-7.6921-4.6319-6.2993-4.7219-19.169 1.2386-4.01 1.855-8.22 3.374-9.37 3.374-1.1434 0-3.7555 1.7277-5.8048 3.8393-2.0492 2.1116-6.2669 4.8925-9.3726 6.1797-6.2443 2.5881-7.4887 4.5841-5.6401 9.0469 0.66487 1.6051 0.91991 4.1595 0.56674 5.6763-0.35316 1.5168-0.88089 5.4578-1.1727 8.7578-0.29184 3.3-1.389 8.475-2.4382 11.5-2.7974 8.0656-4.2278 22.53-2.8811 29.132 1.457 7.143 1.3824 25.603-0.11861 29.368-0.65791 1.65-1.3339 4.575-1.5022 6.5-1.2733 14.566-24.06 50-32.155 50-0.757 0-4.4026 1.5128-8.1014 3.3619-9.1846 4.5914-13.209 5.7728-21.032 6.1747-3.6811 0.18908-9.1679 0.82403-12.193 1.411-3.025 0.58697-9.775 1.5172-15 2.0672-6.2568 0.65862-11.484 1.8794-15.311 3.5761-3.1961 1.4169-6.482 2.3187-7.3019 2.004-0.81993-0.31464-1.2383-0.16349-0.92964 0.33588 0.77992 1.2619-5.369 3.1382-11.455 3.4955-4.9957 0.29327-9.9765 3.2753-10.018 5.9979-0.009 0.59163-2.016 3.0065-4.4597 5.3664-2.4438 2.3599-5.6771 6.5578-7.1852 9.3286-2.69 4.94-6.43 7.87-10.08 7.87-2.63 0-4.25 1.96-4.25 5.13 0 1.5042-0.43661 3.8833-0.97024 5.2868-0.53363 1.4036-1.4526 6.4339-2.0422 11.179-1.1115 8.945-2.3175 14.312-8.5076 37.86-4.3486 16.543-5.3308 27.323-4.1494 45.541 0.82348 12.698 0.75299 13.584-1.662 20.88-1.3871 4.1905-3.0758 10.994-3.7528 15.119-0.67698 4.125-1.6482 8.3293-2.1582 9.3429-0.51004 1.0136-0.8938 8.8886-0.85282 17.5 0.073 15.333 0.4373 17.936 4.5002 32.157 0.86423 3.025 1.5767 7.4954 1.5832 9.9343 0.025 9.3428 5.3903 16.037 14.919 18.614 3.0758 0.83188 7.2596 1.9608 9.2974 2.5088 9.7314 2.6167 12.741 10.197 6.5193 16.419-8.24 8.25-49.72 3.67-49.72-5.48 0-3.4393-9.4698-4.7776-27.421-3.8753-2.8188 0.14169-5.3723-0.40099-7.0456-1.4974-1.4434-0.94578-3.4445-1.4593-4.4468-1.1412-7.8216 2.4825-9.9074-8.0909-3.4763-17.622 3.5125-5.2057 3.5909-5.5264 2.8973-11.85-1.1959-10.904 0.0262-21.491 3.4052-29.5 2.2278-5.2802 5.5745-32.329 5.1966-42-0.2149-5.5-0.4399-16.525-0.5-24.5-0.10902-14.465 0.2336-16.834 4.4116-30.5 3.0007-9.8154 4.5855-54.722 2.488-70.5-0.32902-2.475-0.69062-5.5125-0.80355-6.75s-0.65533-2.2982-1.2053-2.3571c-0.55-0.0589-3.5452-0.23369-6.6559-0.38839-8.3073-0.4131-23.159-5.7436-25.067-8.997-0.39747-0.67775-2.8725-1.7762-5.5-2.441-8.9516-2.2648-18.377-5.2368-21.08-6.647-1.4836-0.77397-3.5703-1.41-4.6372-1.4134-7.8221-0.0248-38.798-13.402-61.036-26.359-10.64-6.19-12.97-6.15-19.52 0.36-5.9844 5.953-5.7118 5.9193-12.136 1.5-6.3689-4.381-6.8634-4.363-6.865 0.25-0.00072 2.0625-1.1796 8.475-2.6198 14.25-1.9958 8.0032-2.6613 13.353-2.7986 22.5-0.27144 18.088-2.9271 25.891-11.174 32.829-3.3804 2.844-6.9923 6.7377-8.0264 8.6527s-4.9542 6.7307-8.7114 10.702c-6.0894 6.4359-7.3486 8.5009-11.597 19.018-5.4219 13.422-8.8809 20.504-13.708 28.068-1.851 2.9-3.364 6.1-3.364 7.12 0 2.752-4.868 23.795-6.8907 29.786-1.613 4.7778-1.6525 6.4202-0.47045 19.523 0.70987 7.8683 1.7392 20.024 2.2873 27.013 0.7135 9.0965 1.7283 14.779 3.5717 20 1.4162 4.0113 3.2725 9.7683 4.1251 12.793 3.666 13.008 8.9072 19.929 19.179 25.327 19.087 10.02 8.552 21.66-15.802 17.45zm217.49-17.38c5.58-1.4 7.87-15.91 2.51-15.91-2.7264 0-3.5016-0.40577-3.5072-1.8359-0.004-1.0097-0.86767-2.4651-1.9194-3.2341-1.8403-1.3456-1.8448-1.4727-0.12155-3.3769 1.1466-1.267 1.5283-2.6214 1.0612-3.7659-1.2501-3.0627-3.4401-12.668-3.4775-15.252-0.0696-4.8164 2.7613 0.11704 4.2832 7.4643 1.2969 6.2612 1.5542 6.7361 2.4376 4.5 0.78488-1.9868 0.27892-4.5404-2.4647-12.439-1.8988-5.4667-3.2528-10.983-3.009-12.259 0.33947-1.7758 0.14863-2.0748-0.81431-1.2756-0.69172 0.57408-1.4885 2.4905-1.7706 4.2587-0.28209 1.7682-1.0469 5.24-1.6995 7.715-1.3513 5.1244-0.78824 18.655 0.90817 21.825 1.1611 2.1696-0.63074 6.4664-5.0279 12.056-2.93 3.73-2.28 10.12 1.03 10.12 1.0261 0 2.1903-1.3776 2.9577-3.5 0.69609-1.925 1.6865-3.5 2.2009-3.5 1.3299 0 1.161 4.3743-0.22235 5.7576-1.5123 1.5123 0.84487 4.5764 2.9107 3.7836 0.78798-0.30237 2.4689-0.80983 3.7353-1.1277zm-6.8334-28.242c-1.734-1.916-2.0364-5.339-0.75957-8.5982 0.94775-2.4193 1.6303-0.91871 2.6377 5.799 0.76885 5.1271 0.53887 5.4698-1.8781 2.7991zm-229.31 22.06c-1.093-4.18-2.849-3.13-2.849 1.71 0 4.5924 0.03524 4.6449 1.6978 2.5313 0.97086-1.2343 1.4639-3.0531 1.1515-4.2479zm256.7-9.98c0.028-0.9625 0.55738-9.175 1.1764-18.25 1.5219-22.314 1.5774-54.327 0.10392-60-0.64283-2.475-1.734-7.1159-2.4249-10.313-4.4555-20.62-12.042 51.049-8.3333 78.72 0.84924 6.3358 9.3237 15.137 9.4779 9.8433zm-266.18-6.92c-0.53602-2.8692-0.48844-6.047 0.12353-8.25 1.4438-5.1976 1.2481-10.094-0.94293-23.583-1.072-6.6-2.4313-16.95-3.0207-23-1.277-13.11-2.85-21.5-4.029-21.5-2.7249 0-2.3375 37.076 0.55383 53 1.0167 5.5994 1.3212 10.805 0.89238 15.254-0.6418 6.6583-0.60572 6.7959 2.5566 9.75 4.3253 4.0405 4.8876 3.7976 3.866-1.6704zm251.57-74.08c-0.33095-1.5125-1.0145-4.0546-1.5191-5.6492-1.17-3.69-1.18-3.6 0.52-3.6 1.0855 0 1.2974-0.86124 0.8659-3.5201-0.4721-2.9092-0.30095-3.4164 0.98618-2.9224 1.9373 0.74341 3.9072-2.6285 3.3808-5.787-0.20812-1.2488-0.18601-1.708 0.0491-1.0205 0.64988 1.9001 1.9316 1.5096 4.1022-1.25 1.0816-1.375 2.288-2.5 2.681-2.5 0.39297 0 0.43213 1.125 0.087 2.5-0.36183 1.4416-0.19606 2.5 0.39159 2.5 0.56048 0 1.019-1.575 1.019-3.5 0-4.0446-0.74842-4.3147-3.8776-1.3994-3.7269 3.4721-3.4147 1.4891 0.40281-2.5587 2.9808-3.1606 3.3199-3.9483 2.1106-4.9037-0.79235-0.62602-1.6677-2.7132-1.9452-4.6382-0.27752-1.925-0.97097-5.2846-1.541-7.4658-0.72189-2.7623-0.71617-4.3516 0.0188-5.2373 0.58038-0.69932 0.77212-2.0092 0.4261-2.911-0.34602-0.90172-0.0759-2.3062 0.60038-3.121 0.99891-1.2036 0.8624-1.7499-0.72788-2.9127-1.5943-1.1658-1.6995-1.5906-0.56701-2.2906 0.93631-0.57867 1.1935-1.8436 0.78758-3.8733-0.40531-2.0265-0.12527-3.4103 0.85475-4.2237 1.7833-1.48 1.9262-4.941 0.20756-5.0282-0.6875-0.0349-0.27866-0.45513 0.90854-0.93394 1.9665-0.79311 2.074-1.247 1.2079-5.1016-0.55023-2.4489-0.57685-4.4774-0.0632-4.816 1.4805-0.97595 2.1976-7.9069 0.87427-8.4497-0.82836-0.33981-0.73521-0.78981 0.31411-1.5175 1.188-0.82388 1.2389-1.2873 0.25-2.2761-0.6829-0.6829-1.2416-2.4097-1.2416-3.8372 0-2.2548-0.45949-2.6266-3.5-2.8313-2.6316-0.17723-3.5 0.15887-3.5 1.3546 0 0.87469-0.42112 1.3301-0.93582 1.012-0.51471-0.3181-1.1552 1.3428-1.4232 3.691-2.0458 17.92-2.659 25.22-2.6506 31.559 0.007 5.135-0.54142 8.3866-1.8546 11-1.0253 2.0406-2.4146 6.1852-3.0873 9.2102s-1.4383 6.4-1.7013 7.5c-0.3905 1.6332-0.28561 1.7249 0.572 0.5 1.3028-1.8609 1.3384 0.39568 0.16563 10.5-0.58975 5.081-0.47726 7.4112 0.41032 8.5 0.67255 0.825 1.4602 2.4 1.7504 3.5 0.29016 1.1 0.85373 2.7926 1.2524 3.7613 0.57006 1.3853 0.35617 1.6199-1.002 1.0987-1.3584-0.52125-1.599-0.257-1.1282 1.2387 0.52972 1.6828 2.6323 12.097 2.6323 13.038 0 0.19993 0.68357 0.36351 1.519 0.36351 1.1364 0 1.3675-0.69281 0.91733-2.75zm-217.36-71.62c1.031-2.27 1.848-5.25 1.817-6.63l-0.05699-2.5-1.0044 2.75c-0.55241 1.5125-1.69 2.75-2.528 2.75-0.91662 0-1.3031 0.57478-0.97004 1.4427 0.30449 0.79349 0.15656 2.8272-0.32874 4.5193-1.2445 4.3395 0.71779 2.8473 3.0713-2.3354zm1.2842-18.864c1.9543-10.679 1.1158-13.203-1.5827-4.7651-1.5295 4.7828-1.4102 9.5081 0.21466 8.5039 0.42406-0.26208 1.0397-1.9445 1.368-3.7388zm14.45-5.3586c3.467-3.92 3.956-5.41 1.778-5.41-0.91405 0-1.2233 0.70014-0.88337 2 0.35868 1.3716 0.03068 2-1.0439 2-0.86182 0-2.0256 0.7875-2.5862 1.75-1.1562 1.985-1.2749 1.5312-1.2421-4.75l0.02348-4.5-0.87311 4c-2.0331 9.3141-0.47671 10.895 4.8276 4.9036zm218.18-26.7c0-0.15871-0.9-2.0538-2-4.2114s-2-5.0277-2-6.3781-0.29882-2.1564-0.66404-1.7912c-0.98758 0.98759-0.50194 8.4906 0.69424 10.726 0.82862 1.5483 3.9698 2.8579 3.9698 1.655zm-290.11-32.49c2.2359-4.3828 4.1557-13.789 4.0109-19.652-0.09498-3.8466-0.17355-3.7329-1.4538 2.104-0.74436 3.3937-2.4945 8.8816-3.8892 12.195-2.1203 5.03-2.5553 9.13-0.9698 9.13 0.20498 0 1.2409-1.7018 2.302-3.7817zm408.92-32.73c2.0292 0.27296 5.1239 0.68025 6.8771 0.90507 1.7532 0.22483 4.2012 1.3531 5.4401 2.5073 1.5352 1.4303 2.4748 1.7388 2.9506 0.96896 0.38396-0.62125 1.1933-0.82353 1.7984-0.4495 0.69189 0.42761 0.87928 0.10395 0.50482-0.87188-0.79118-2.0618 0.24028-1.9574 3.4844 0.3526 2.3189 1.6512 2.9252 1.7214 4.5579 0.52752 1.7004-1.2434 1.7227-1.4386 0.22969-2.0115-0.90943-0.34898-1.6535-1.2614-1.6535-2.0275 0-1.8122 0.99652-1.7724 2.3898 0.0954 0.81254 1.0893 2.1452 1.3176 4.9702 0.8513 2.9822-0.4922 3.4938-0.842 2.25-1.5381-2.9444-1.6478-1.9988-3.8989 1.14-2.714 2.2131 0.83546 2.5059 0.79158 1.5-0.22475-1.8378-1.8568-1.6975-5.4792 0.15275-3.9436 1.0776 0.89433 1.5035 0.86477 1.8374-0.12755 0.34555-1.027 0.79101-0.99749 2.1735 0.14396 1.9767 1.6321 4.232-0.41115 2.6516-2.4022-1.35-1.69-2.27-5.53-1.34-5.53 0.4765 0 1.9693 1.7879 3.3174 3.9731 2.5702 4.1662 3.951 5.0494 3.951 2.5269 0-0.825-0.40598-1.5-0.90217-1.5-0.4962 0-1.3728-1.35-1.948-3-1.1848-3.3987-1.2307-3.3614 2.4249-1.9716 3.0351 1.1539 6.4794-0.9756 6.3619-3.9334-0.0371-0.93376-0.4786-0.55858-1.0649 0.90499-0.95793 2.3911-1.0492 2.4152-2.0964 0.55326-0.80689-1.4347-0.78981-2.0484 0.0649-2.3333 0.64-0.21 1.16-0.97 1.16-1.69 0-0.71502 0.93555-1.5447 2.079-1.8437 1.5181-0.39698 1.9312-0.15864 1.5314 0.88337-0.30118 0.78487-0.11172 1.427 0.42101 1.427 0.53274 0 0.96862-2.2234 0.96862-4.941 0-2.7175 0.40285-5.19 0.89522-5.4943 1.2695-0.78458 2.0692 1.8156 1.4114 4.5888-0.5316 2.2412-0.49046 2.2611 0.91669 0.44367 0.8103-1.0465 1.9915-1.5825 2.625-1.191 0.7265 0.44901 1.1517-0.0484 1.1517-1.3472 0-1.13-0.45-2.06-1-2.06-1.6091 0-1.1562-1.916 1-4.2304 1.1-1.1807 2-2.6647 2-3.2977s1.125-1.6635 2.5-2.29c2.0649-0.94083 2.5202-1.8825 2.616-5.4105 0.0638-2.3493 0.3218-3.4839 0.57333-2.5214 1.0933 4.1835 5.2335-1.3642 5.2774-7.0714 0.0183-2.3768 0.62538-4.9135 1.3491-5.6372 1.8203-1.8203 1.2993-8.8681-1.3705-18.541-0.53131-1.925-1.361-8.45-1.8437-14.5-0.48276-6.05-1.224-12.083-1.6472-13.406-0.58054-1.8157-0.45898-2.2145 0.49525-1.6248 0.95731 0.59165 1.0688 0.20435 0.45876-1.5936-0.44324-1.3064-0.85378-5.3002-0.9123-8.8752-0.0585-3.575-0.46786-7.7375-0.90964-9.25-0.55714-1.9074-0.43929-2.75 0.38462-2.75 0.7996 0 0.97249-0.98056 0.52895-3-0.64662-2.944 0.80005-4.3216 1.8377-1.75 0.34168 0.84676 0.51842 0.76612 0.5479-0.25 0.0239-0.825-0.5996-2.625-1.3856-4-2.176-3.8066-1.7756-4.6075 1-2 2.7238 2.5589 3.3877 1.5559 1.0318-1.5589-2.03-2.68-1.88-4.193 0.47-4.94 1.1-0.34913 2-1.081 2-1.6264s-0.38371-0.75449-0.85268-0.46464c-0.46897 0.28984-1.7065-0.12565-2.75-0.92332-1.75-1.3377-1.6452-1.4032 1.3502-0.84346 1.9779 0.36959 3.8349 0.11934 4.75-0.6401 0.82-0.686 1.5-0.806 1.5-0.266 0 1.0949 7.6673 0.93029 8.7863-0.18863 0.39-0.392 0.71-1.239 0.71-1.88 0-0.642 0.54-1.167 1.2-1.167s1.7273-0.52734 2.3719-1.1719c0.64452-0.64452 1.7465-0.95134 2.4488-0.68183 0.70235 0.26952 1.5741 0.0094 1.9372-0.57814 0.36-0.587 0.15-1.068-0.46-1.068-0.62313 0-0.78535-0.53829-0.36648-1.216 0.41335-0.66882 1.0092-2.8015 1.3242-4.7392 0.74971-4.6123 3.71-5.3851 5.2276-1.3647 1.0434 2.7644 8.8147 3.9056 8.8147 1.2944 0-0.44853 1.4625-1.1292 3.25-1.5126 4.5865-0.98371 4.7013-1.1307 3.4567-4.428-1.5594-4.1313-0.3358-4.741 3.3278-1.6583 1.71 1.443 4.25 2.624 5.64 2.624 3.1399 0 9.336 2.8667 10.014 4.6329 0.70282 1.8315 6.0817 4.3671 9.2642 4.3671 1.4555 0 3.1271 0.4807 3.7146 1.0682 1.7337 1.7337 8.7588 0.72931 9.1447-1.3075 0.26754-1.4119-0.20142-1.6398-2.4917-1.2108-1.81 0.337-4.1-0.191-6.33-1.454-7.38-4.181-17.5-9.096-18.72-9.096-1.6127 0-1.6584-2.2198-0.0782-3.8 0.80282-0.80282 0.83823-1.2 0.10699-1.2-0.60116 0-1.352 0.675-1.6686 1.5-0.7 1.814-3.64 2.011-3.64 0.244 0-3.2389 11.402-4.5974 15.5-1.8467 1.7389 1.1672 18.802-0.27592 19.248-1.6279 0.80595-2.444-6.9408-8.348-10.748-8.1913-8.7371 0.35963-17.919-5.2996-14.582-8.9873 2.1295-2.3531-4.1564-4.3826-6.794-2.1936-1.0145 0.84197-2.06 0.7578-4.1673-0.33547-1.5472-0.80269-3.1821-1.2313-3.6332-0.95257-0.45107 0.27877-3.4959-2.2193-6.7663-5.5512-5.74-5.8419-8.25-7.1733-9.56-5.058-0.34 0.55-1.49 1-2.56 1s-1.94 0.45-1.94 1 0.9 1 2 1 2-0.43886 2-0.97525c0-1.9269 5.5143 1.0963 9.3299 5.1151 5.0222 5.2896 4.1028 5.8816-2.226 1.4332-2.79-1.965-5.36-3.573-5.7-3.573-1.027 0 5.6428 5.9149 8.7185 7.7318 4.5694 2.6992 3.3345 3.4825-1.373 0.87084-6.95-3.855-10.75-4.313-10.75-1.296 0 2.1849-6.9036 13.898-8.9293 15.15-0.42997 0.26574-0.55996-0.67714-0.28887-2.0953 0.43847-2.2937 0.28448-2.4579-1.3944-1.4866-3.86 2.231-5.39 3.9-5.39 5.878 0 1.118-0.72568 2.3112-1.6126 2.6516-1.283 0.49233-1.3676 0.91406-0.41391 2.0632 0.65929 0.7944 0.87325 1.971 0.47546 2.6146-0.45755 0.74033-1.2057 0.02289-2.0364-1.9529-1.4385-3.4212 0.19664-9.4681 2.8126-10.401 0.70117-0.25009 0.97127-0.78241 0.60022-1.1829-1.2117-1.3079-4.799 0.53206-6.3813 3.2731l-1.54 2.681 0.59633-3 0.59634-3-2.6246 3c-1.6392 1.8736-2.4091 2.3184-2.0507 1.1846 0.45942-1.4533 0.1762-1.6892-1.4198-1.1826-2.04 0.647-2.81-0.886-1-2.002 1.9241-1.1891 1.063-2.6041-0.93426-1.5352-2.7507 1.4721-5.1035 1.2972-4.478-0.33294 0.9-2.353 10.03-7.632 13.2-7.632 2.3376 0 3.4406-0.72728 4.9291-3.25 2.8162-4.7731 2.9292-5.2415 1.28-5.3058-0.825-0.03216-2.2469-0.40281-3.1597-0.82367-2.5019-1.1535-7.4892 1.8918-10.467 6.391-1.4398 2.1756-3.0128 3.7115-3.4957 3.4131-0.48-0.299-0.88 0.159-0.88 1.016s-0.48 1.559-1.06 1.559c-0.58246 0-0.7809-0.45-0.44098-1s-0.35065-1-1.5346-1c-1.2642 0-2.3551-0.77426-2.6432-1.8761-0.26984-1.0319-1.5868-2.4628-2.9266-3.1798-1.4689-0.78615-2.0736-1.6661-1.5231-2.2165 1.396-1.396 5.0168 0.98277 5.7119 3.7526l0.60799 2.4224 2.4234-2.2471c2.6596-2.4661 4.414-10.174 2.1389-9.3969-0.6901 0.23562-2.0427-0.47052-3.0057-1.5692-1.7236-1.9663-1.7849-1.9678-3.9196-0.093482-1.9475 1.71-2.1035 1.7257-1.5304 0.15412 0.83035-2.277-1.1785-2.277-2.907 0-1.2193 1.6062-1.3363 1.5446-1.4236-0.75-0.0949-2.4919-0.0981-2.4927-0.99958-0.25-0.49742 1.2375-1.405 2.25-2.0168 2.25-3.0647 0-9.7234 7.4712-8.8069 9.8816 1.3153 3.4595 0.89106 3.4628-6.6316 0.05185-6.6079-2.9962-8.4319-2.9282-8.4981 0.31657-0.008 0.4125-0.80706 0.75-1.7748 0.75-2.3049 0-3.8087 2.6309-4.0732 7.1262-0.3027 5.1448 5.4539 10.355 10.413 9.4247 3.8326-0.719 10.129 1.5287 11.057 3.9471 0.86458 2.2531-0.57322 3.3033-1.9694 1.4385-2.6438-3.5312-4.7138-3.1438-4.483 0.83907 0.49341 8.5142-0.10372 11.916-1.7171 9.7833-1.42-1.887-1.46-1.877-1.46 0.372 0 2.7627-2.941 1.0397-3.079-1.8038-0.0434-0.89516-0.29196-1.1069-0.55231-0.47063-0.98919 2.4176 2.6357 9.0528 3.8095 6.9731 1.3872-2.4578 2.7849-0.43532 2.8064 4.061 0.008 1.755 0.45853 3.4649 1.0002 3.7997 0.60698 0.37513 0.76019-0.51504 0.39926-2.3197-0.32213-1.6106-0.12275-3.2145 0.44306-3.5642 1.0557-0.65247 1.5283 0.43767 2.6924 6.2108 0.36792 1.8247 1.3015 3.5603 2.0747 3.857 0.77313 0.29668 1.4057 1.4933 1.4057 2.6591 0 2.0411-9.9058-7.4758-9.9753-9.5836-0.0136-0.4125-0.88189-0.75-1.9296-0.75-1.6508 0-1.8399 0.56693-1.4177 4.25 0.63111 5.5056 1.1237 6.9909 2.1153 6.3781 0.4438-0.27428 1.3802 0.41928 2.0809 1.5413 0.70322 1.126 0.79289 1.7426 0.20015 1.3763-0.63-0.389-1.07 0.185-1.07 1.397 0 2.518-1.5348 2.6798-2.932 0.30902-0.83556-1.4177-1.2006-1.4931-1.9225-0.39676-0.95564 1.4512-4.8173 0.08758-6.3802-2.2529-0.42655-0.63882-0.74111-0.19158-0.75 1.0664-0.008 1.1917-0.40494 2.3167-0.88116 2.5-0.47 0.183-0.5 1.233-0.07 2.333 0.7542 1.896 0.79921 1.883 0.86584-0.25 0.14143-4.5273 5.0703 0.22251 5.0703 4.8861 0 1.2135 0.7875 3.1057 1.75 4.2047 1.6667 1.9031 1.6667 1.9679 0 1.3601-0.96-0.351-1.75-0.202-1.75 0.33 0 0.533-0.68 0.969-1.5 0.969s-1.5 0.35-1.5 0.777c0 1.483 3.12 5.223 4.36 5.223 0.83116 0 1.1072 1.1587 0.83389 3.5-0.22473 1.925-0.0219 3.5009 0.4508 3.502 0.47268 0.001 0.95379 1.3511 1.0692 3 0.26211 3.7464-0.98307 3.8616-2.6803 0.24801-0.8366-1.7812-1.4631-2.2731-1.7784-1.3964-0.26772 0.7445 0.46215 2.5445 1.6219 4s2.7419 4.0539 3.5158 5.7743c0.77393 1.7204 1.9031 3.4344 2.5092 3.809 1.4013 0.86608 1.4161 4.1078 0.0304 6.6969-0.9883 1.8467-1.2523 1.884-3.3953 0.47982-2.3393-1.5328-4.4706 1.0604-2.9258 3.5599 0.84 1.37 2.39 0.93 2.39-0.67 0-2.0222 0.21809-1.9612 5.7153 1.5973 4.5415 2.9399 4.362 3.0387-2.1662 1.1922-1.884-0.53287-1.8918-0.4615-0.22695 2.0794 0.9482 1.4471 1.2495 2.6312 0.66957 2.6312-0.57994 0-1.3135-0.675-1.63-1.5-0.83429-2.1741-2.2645-1.8447-1.6809 0.38714 0.27142 1.0379 0.004 2.1895-0.59362 2.559-1.62 0.99-1.32 3.55 0.41 3.55 1.9124 0 1.8957 0.99005-0.0641 3.788-0.8988 1.2832-1.2948 3.0813-0.93105 4.2274 0.78198 2.4638-1.8621 3.7629-4.0176 1.974-0.88-0.73-1.49-0.82-1.49-0.21 0 0.56302 1.575 1.9529 3.5 3.0887 3.4368 2.0278 4.5308 5.1041 2.7347 7.6905-0.93603 1.3479-5.4338 4.442-6.4572 4.442-2.0785 0-0.38486-2.1372 2.7225-3.4356 4.0202-1.6797 4.2317-2.4404 1.5861-5.7037-2.1944-2.7068-3.7752-2.017-2.1854 0.95361 0.81456 1.522 0.73181 2.1127-0.35438 2.5295-0.77939 0.29908-1.6356 0.007-1.9027-0.65004-0.42531-1.0455-0.64053 0.24533-1.048 6.285-0.0573 0.84892-1.2228 1.5652-2.7362 1.6815-2.1158 0.16262-2.5411-0.16189-2.1537-1.6433 0.30929-1.1827-0.26969-2.2486-1.6115-2.9667-2.4948-1.3352-2.5411-1.1359-0.6004 2.5852 0.82161 1.5754 1.4966 3.6659 1.5 4.6457 0.003 0.97977 0.6701 2.0362 1.4816 2.3476 1.7158 0.65842 4.815 6.3711 3.4564 6.3711-0.50319 0-1.4769-0.9-2.1639-2-1.5379-2.4626-2.4804-2.5391-3.0786-0.25-0.29999 1.1479-0.49724 0.86122-0.57333-0.83333-0.16567-3.6894-1.091-4.1534-3.2395-1.6242-1.7771 2.092-1.9473 2.1146-3.2545 0.43235-2.0109-2.588-2.9314 2.7762-1.0881 6.3408 1.4858 2.8731 1.7425 10.934 0.34819 10.934-0.86158 0-1.1116-1.1798-1.2182-5.75-0.06-2.79-4.66-3.33-4.66-0.55 0 1.2662-0.28907 1.4109-1.1328 0.56722-1.7798-1.7798-0.23368-4.5183 2.1278-3.7688 1.4456 0.45881 2.0049 0.18259 2.0049-0.99007 0-0.89452-0.45-1.3483-1-1.0084-1.0198 0.63029-1.3707-0.62-1.0523-3.75 0.0979-0.9625-0.47017-1.75-1.2624-1.75-2.7365 0-3.9567 2.8239-3.4588 8.0052 0.66913 6.9638-0.4352 6.2293-3.107-2.0662-2.3956-7.4381-4.0776-9.1237-6.5938-6.6075-2.3992 2.3992-0.86075 6.6686 2.4029 6.6686 0.58929 0 1.0714 0.72748 1.0714 1.6166 0 1.1403-0.60732 1.4578-2.0612 1.0776-1.3332-0.34864-2.2779 0.0258-2.6749 1.0603-0.89917 2.3432-2.1037-1.1185-2.1937-6.3045-0.0672-3.8718-1.421-6.45-3.3869-6.45-0.50415 0-0.67455 0.92572-0.37868 2.0572 0.43431 1.6608 0.27205 1.8365-0.84216 0.91175-1.3951-1.1578-2.0695 0.14748-2.8603 5.5357-0.4613 3.1431-2.1589 2.7299-2.4116-0.587-0.35511-4.6603-2.6084-6.4908-4.0622-3.3-0.62529 1.3724-1.534 2.2498-2.0193 1.9498-0.48534-0.29996-1.4385 0.12467-2.1182 0.94361-1.8139 2.1856-4.5623 1.8628-4.5623-0.53577 0-1.239 0.49898-1.8333 1.2857-1.5314 0.78817 0.30245 1.2857-0.29451 1.2857-1.5426 0-2.1774-3.7161-1.8555-5.1926 0.44967-0.40593 0.63378-1.12-0.0428-1.7252-1.6348-1.2-3.16-2.08-3.52-2.08-0.86 0 1.025 1.1864 3.05 2.6364 4.5s2.2949 2.6364 1.8776 2.6364c-0.41735 0-0.20272 0.67005 0.47694 1.489 0.67967 0.81894 1.5868 1.272 2.0158 1.0069 1.5378-0.95041 2.0877 4.5526 0.60329 6.037-1.0095 1.0095-1.5659 1.0991-1.8338 0.2955-0.35-1.03-3.78-2.19-3.78-1.27 0 0.20661 2.4356 5.4543 5.4124 11.662 2.9768 6.2072 5.7531 12.861 6.1695 14.786 0.71507 3.3057 0.7919 3.3612 1.3843 1 0.35034-1.3965 0.0198-3.7192-0.74881-5.2621-0.7568-1.5192-1.1888-3.3192-0.96007-4 0.22876-0.68083 0.95868 0.40218 1.622 2.4067 1.3065 3.9479 5.7966 6.5485 4.8131 2.7877-0.32-1.23 0.01-1.93 0.9-1.93 0.78 0 1.41-0.45 1.41-1s0.45-1 1-1 1 1.1516 1 2.559c0 1.4075 0.402 2.3106 0.89333 2.0069 0.49133-0.30366 1.1962 0.65449 1.5663 2.1292 0.37014 1.4747 1.4306 3.305 2.3567 4.0672 0.92603 0.76226 1.1212 1.101 0.4337 0.75275-1.8237-0.92379-1.5276 0.55152 0.5 2.4911 1.6503 1.5786 1.7677 1.4836 2.0605-1.6683 0.30049-3.2346 0.42934-3.3263 4-2.846zm-17.579-12.514c-1.6168-5.1805-1.6773-11.349-0.0843-8.6076 0.87722 1.5099 1.2535 1.6062 1.9543 0.5 0.70688-1.1159 0.87069-1.0825 0.88317 0.18002 0.008 0.8525-0.45623 2.0215-1.0326 2.5979-0.7305 0.7305-0.69695 1.8181 0.11077 3.5908 0.70818 1.5543 0.81683 3.1538 0.27946 4.114-0.68574 1.2254-1.1502 0.70274-2.1108-2.3751zm64.77-5.9c0-1.0542-0.39427-2.0667-0.87615-2.25-1.6756-0.63746 0.0655-6.8644 2.2437-8.0248 1.8725-0.99751 1.9762-0.94651 0.85075 0.41837-1.4639 1.7753-1.7996 6.2167-0.71984 9.5231 0.46657 1.4287 0.32719 2.25-0.38185 2.25-0.62 0-1.12-0.86-1.12-1.92zm-12.31-170.19c-2.3068-1.342-0.68612-3.5752 4.0233-5.5438 4.1083-1.7173 5.2821-1.696 5.2821 0.09589 0 0.79254 0.51953 1.7621 1.1545 2.1545 0.7153 0.44208 0.88306 0.27432 0.44098-0.44098-0.39-0.635-0.23-1.155 0.35-1.155s1.06 0.932 1.06 2.072c0 1.5619-0.55359 2.0049-2.25 1.8007-1.2375-0.14898-3.2329 0.26882-4.4343 0.92843-2.6249 1.4412-3.2777 1.4515-5.6212 0.08817zm-280.16 187.43c-0.69646-1.71-0.78414-1.6992-1.4862 0.18278-0.82439 2.2098-3.8437-2.9254-7.5904-12.91-1.0133-2.7003-1.9924-4.4594-2.1758-3.9093-0.52366 1.571 6.6258 17.676 8.4669 19.073 2.0787 1.5769 3.8052 0.0668 2.7856-2.4365zm217.29-10.767c-1.1835-3.8673-2.8369-6.86-4.5829-8.2951-1.5023-1.2348-2.1956-2.2473-1.5407-2.25 0.87175-0.004 0.81849-0.72239-0.19882-2.6833-0.76424-1.4731-1.2348-2.9356-1.0457-3.25 0.18912-0.31443-0.28391-1.1519-1.0512-1.8611-1.8131-1.6758-1.9491 0.89312-0.21747 4.1052 0.64767 1.2013 1.2113 4.3004 1.2524 6.8867 0.0417 2.6217 0.68706 5.2766 1.4585 6 1.356 1.2716 1.3502-0.0275-0.0166-3.7024-0.20455-0.55 0.0781-1.0253 0.62809-1.0562 0.55-0.0309 1.7809 2.4441 2.7353 5.5 2.1084 6.751 2.0919 6.3958 0.26473 5.6946-0.825-0.31658-1.5-0.13258-1.5 0.4089 0 0.54147 1.2748 0.88736 2.8329 0.76864l2.8329-0.21586-1.8515-6.05zm-256.55-20.3c-0.36859-0.9625-1.6849-3.2465-2.9252-5.0756s-2.5457-4.2414-2.901-5.3608c-0.62585-1.9719-0.68406-1.9618-1.8715 0.32561-1.3622 2.6241-0.98618 4.9146 0.75174 4.5792 0.62228-0.12011 1.2859 0.79412 1.4747 2.0316 0.18881 1.2375 0.93885 2.25 1.6668 2.25 0.72791 0 1.5825 0.675 1.8991 1.5 0.31658 0.825 1.0256 1.5 1.5756 1.5s0.69843-0.7875 0.32984-1.75zm252.27 0.69316c1.07-1.74-0.46-5.94-2.17-5.94-1.0372 0-1.3774 0.54866-0.98095 1.5818 0.33385 0.86998 0.60699 2.445 0.60699 3.5 0 2.0722 1.4767 2.574 2.5351 0.86137zm-8.18-3.44c-0.69007-1.7983 0.76182-1.9766 2.4389-0.29943 0.88786 0.88786 0.87484 0.4992-0.05-1.4922-0.68781-1.481-1.7006-2.7032-2.2506-2.7159s-0.43211-0.38361 0.26198-0.82422c0.97683-0.6201 1.0087-1.5277 0.14102-4.0167-0.83001-2.381-1.441-2.95-2.354-2.1923-0.67817 0.56283-1.5497 0.70663-1.9368 0.31955-1.2787-1.2787 0.6708 8.1749 2.1593 10.471 1.6747 2.5835 2.4305 2.94 1.5901 0.75zm-30.58-44.04c-1.18-1.35-3.18-2.46-4.46-2.46-1.37 0-2.32-0.6-2.32-1.46 0-0.80565-0.9-1.9465-2-2.5352s-1.985-0.71703-1.9667-0.28518c0.0694 1.639 3.5908 4.9035 6.6449 6.1604 1.748 0.71934 3.4323 1.9702 3.7429 2.7797 0.31064 0.8095 1.001 1.2022 1.5342 0.87271 0.54698-0.33805 0.0357-1.6729-1.1733-3.0634zm153.66-55.513c0.31101-2.9959 0.29282-4.8607-0.0404-4.144-0.46162 0.99276-0.9513 0.87372-2.0567-0.5-1.3388-1.6639-1.3909-1.6101-0.67448 0.697 0.42697 1.375 0.67656 4.75 0.55466 7.5-0.29513 6.6576 1.4467 3.866 2.2169-3.553zm69.56-38.77c0-0.79-7.98-5.177-9.42-5.177-1.5222 0 0.74276 2.1215 4.2334 3.9652 4.1084 2.17 5.1852 2.4217 5.1852 1.2121zm-243.91 233.07c-0.05-0.69-0.77-1.25-1.59-1.25-1.9947 0-1.9118-1.6702 0.13991-2.8184 1.2994-0.72717 1.5375-1.9834 1.1468-6.0497-0.27-2.82-0.11-5.13 0.36-5.13 0.46927 0 0.85321 1.3359 0.85321 2.9686 0 2.358 0.34228 2.8373 1.664 2.3301 1.1917-0.4573 1.4372-0.27158 0.86505 0.65425-0.43945 0.71104-1.373 3.375-2.0746 5.9199-0.70159 2.5449-1.3159 4.0646-1.365 3.3771zm-22.901-17.289c-1.2037-1.1214-2.2466-3.0339-2.3176-4.25-0.2927-5.0152 0.3949-12.309 1.2926-13.711 0.6411-1.0014 0.7782 0.66052 0.41247 5-0.3013 3.575-0.11105 7.175 0.42276 8 0.75005 1.1592 0.99002 0.81837 1.0562-1.5 0.0471-1.65 0.43841-3.9 0.86962-5 0.47262-1.2056 0.7426 1.0779 0.67972 5.7491-0.0574 4.262-0.13196 7.7495-0.16575 7.75-0.0338 0.00048-1.0463-0.91665-2.25-2.0381zm-252.42-14.96c-0.86743-1.925-1.6654-5.075-1.7733-7-0.3415-6.0924 0.22645-6.7031 1.0382-1.1165 0.43025 2.9609 1.3135 5.7118 1.9627 6.1131 0.64925 0.40126 0.99349 1.8037 0.76498 3.1165-0.39 2.24-0.516 2.17-1.993-1.11zm112.02-59.5c-0.99381-5.0995-0.90014-10.5 0.18211-10.5 0.56723 0 1.0313 0.91583 1.0313 2.0352s0.71379 3.1246 1.5862 4.456c1.5401 2.3505 1.146 5.0793-0.57962 4.0129-0.47037-0.29071-1.0308 0.26445-1.2453 1.2337-0.25864 1.1684-0.58708 0.75137-0.97473-1.2378zm160.55-56c-2.0688-2.475-4.2715-4.5-4.8948-4.5-0.62329 0-1.9477-0.9-2.9432-2-2.1604-2.3872-2.292-2.3814 4.0714-0.18149 2.7893 0.96427 4.9273 2.1871 4.7513 2.7174-0.17604 0.53028 0.80434 2.2716 2.1786 3.8697 1.3743 1.598 2.4987 3.2856 2.4987 3.75 0 1.9432-2.1333 0.56587-5.662-3.6555zm-24.34-8.44c0-1.61 2.66-3.06 5.64-3.06 3.8586 0 5.413 1.7425 2.1499 2.41-5.17 1.06-7.79 1.28-7.79 0.65zm-191-19.83c0-0.49539 0.5625-0.93472 1.25-0.97629 0.6875-0.0416 3.8999-0.80209 7.1386-1.6901 5.6163-1.5398 10.21-1.3457 9.1398 0.38631-0.27534 0.44551-3.5444 1.1156-7.2645 1.4892-3.7201 0.37353-7.5514 0.90695-8.5139 1.1854-0.9625 0.27842-1.75 0.1009-1.75-0.3945zm58.699-10.575c-0.60044-1.5647 3.3862-10.657 4.6732-10.658 0.47985-0.000432 0.30322 0.68509-0.3925 1.5234-2.2118 2.665-0.31214 2.6882 2.5548 0.03122 1.51-1.402 3.58-2.552 4.6-2.552 1.85 0 6.86-3.718 6.86-5.087 0-1.1267-3.7976 0.13785-5.0897 1.6948-2.0579 2.4796-3.197 1.5463-2.6004-2.1305 0.34026-2.0968 0.18963-3.2863-0.37217-2.9391-0.51908 0.32081-0.80042-0.35611-0.6252-1.5043 0.37612-2.4646 4.3223-5.6298 4.8911-3.9232 0.22946 0.68838 0.88278 0.48975 1.7243-0.52424 1.1689-1.4084 1.1296-1.5461-0.28655-1.0027-0.9 0.347-1.64 0.158-1.64-0.418 0-1.7593 1.7018-2.2299 4.3807-1.2114 1.7607 0.66942 2.7618 0.62387 3.2384-0.14735 0.41902-0.67799 0.23659-0.83614-0.4646-0.40277-2.0374 1.2592-1.2324-0.98273 1.1599-3.2302 1.28-1.196 3.3-2.174 4.5-2.174 1.21 0 2.19-0.402 2.19-0.893 0-0.49116 0.5965-1.1219 1.3256-1.4017 0.72905-0.27976-0.72742 2.5971-3.2366 6.393-3.9462 5.9698-4.969 6.906-7.5756 6.9335-1.6574 0.01749-3.8869 0.69249-4.9545 1.5-1.82 1.375-1.7 1.468 1.82 1.468 2.0694 0 4.4376-0.675 5.2626-1.5 2.2572-2.2572 3.9419-1.8036 1.8571 0.5-2.1844 2.4138-0.90157 2.6734 1.6774 0.33946 1.0092-0.9133 2.118-1.3774 2.464-1.0314 0.79058 0.79058-3.7388 5.6514-5.2878 5.6747-2.9594 0.0446-10.581 11.617-8.5182 12.934 0.54949 0.35092 0.54448 1.5685-0.0126 3.0589-0.73154 1.9571-1.1104 2.1767-1.8081 1.0477-0.48546-0.7855-0.6608-1.7872-0.38963-2.2259 0.68329-1.1056-0.38493-0.9966-2.7764 0.28327-3.146 1.6837-3.3547 0.30912-0.47304-3.1155 1.44-1.716 2.62-3.613 2.62-4.217 0-1.5467-4.7288 3.0762-7.144 6.984-2.171 3.5128-3.34 4.0543-4.1568 1.9256zm-25.7-1.021c0-0.84375 4.9453-3.2732 12.191-5.9888 3.4702-1.3007 7.097-2.7011 8.0595-3.1121 1.0028-0.42816 1.75-0.31724 1.75 0.25977 0 0.55384-3.8862 2.6338-8.636 4.6221-9.19 3.849-13.36 5.165-13.36 4.219zm12.558-9.5396c-0.27809-0.44997 3.42-4.3249 8.218-8.6109s9.4969-8.6556 10.442-9.7101c0.94519-1.0545 3.4202-2.3737 5.5-2.9315 2.2524-0.60406 5.8033-2.9705 8.7815-5.8523 7.46-7.22 13.38-9.99 21.35-9.99 5.0953 0 6.2844 0.26667 5.3511 1.2-0.66 0.66-2.6745 1.2-4.4767 1.2-2.6641 0-3.5522 0.57027-4.75 3.05-1.6677 3.4525-4.6408 4.1991-4.1816 1.05 0.21732-1.49 0.058-1.6541-0.62479-0.64358-0.50407 0.74603-2.3473 1.469-4.0961 1.6065-1.8823 0.14808-4.4834 1.4592-6.3752 3.2135-1.7576 1.6298-4.5456 3.7902-6.1956 4.8009-1.65 1.0106-3.3616 2.4448-3.8036 3.1871-0.44199 0.74229-2.5954 2.2637-4.7853 3.3809s-3.7142 2.4641-3.3874 2.993c0.33 0.529-0.1 0.962-0.96 0.962-1.3959 0-1.999 1.1511-1.6874 3.2201 0.0596 0.39608-0.78706 1.1994-1.8816 1.7852-1.09 0.586-1.99 0.736-1.99 0.334 0-0.40224-1.4625 0.64183-3.25 2.3202-3.5655 3.3477-6.4069 4.705-7.1916 3.4353zm41.679-14.671c-1.1248-3.6649 2.7925-9.3072 6.522-9.394 0.69288-0.01612 2.0106-0.90626 2.9284-1.9781 0.91772-1.0718 2.0423-1.7178 2.4992-1.4355 1.551 0.95857 4.9745-0.75159 4.4164-2.2061-0.3-0.775-0.11-1.409 0.42-1.409s0.97 0.499 0.97 1.108c0 1.552 4.7542 0.23006 7.8059-2.1704 2.32-1.828 5.19-2.596 5.19-1.39 0 1.269-5.44 5.452-7.09 5.452-0.98722 0-2.0731 0.45-2.413 1-0.35498 0.57437 0.55628 1 2.141 1 3.4714 0 2.0159 1.5458-2.3137 2.4571-2.9435 0.61959-3.1297 0.50078-2.5766-1.6446 0.49228-1.9096 0.34816-2.1103-0.82729-1.152-0.78287 0.63828-3.1109 1.4759-5.1734 1.8613-2.1967 0.4105-3.75 1.276-3.75 2.0895 0 0.76379-0.5625 1.3987-1.25 1.4109-2.157 0.03837-6.5832 3.9291-4.5 3.9555 2.0707 0.02631 2.0952 0.17057 0.58948 3.4752-1.5598 3.4235-2.2999 3.2119-3.6016-1.0296z"/>
</svg>
